<svg width="64" height="64" viewBox="0 0 64 64" fill="none" xmlns="http://www.w3.org/2000/svg">
  <rect width="64" height="64" rx="16" fill="url(#g)"/>
  <path d="M32 12a10 10 0 0 1 10 10v2a5 5 0 0 1 5 5v3a5 5 0 0 1-5 5H22a5 5 0 0 1-5-5v-3a5 5 0 0 1 5-5v-2a10 10 0 0 1 10-10z" stroke="white" stroke-width="2.5" stroke-linecap="round" stroke-linejoin="round" fill="none"/>
  <circle cx="26" cy="27" r="1.5" fill="white"/>
  <circle cx="38" cy="27" r="1.5" fill="white"/>
  <path d="M22 38v4a10 10 0 0 0 20 0v-4" stroke="white" stroke-width="2.5" stroke-linecap="round" fill="none"/>
  <path d="M18 48a18 18 0 0 0 28 0" stroke="white" stroke-width="2" stroke-linecap="round" fill="none" opacity="0.5"/>
  <defs>
    <linearGradient id="g" x1="0" y1="0" x2="64" y2="64">
      <stop stop-color="#6366f1"/>
      <stop offset="1" stop-color="#8b5cf6"/>
    </linearGradient>
  </defs>
</svg>
