<?xml version="1.0" encoding="UTF-8"?>
<!-- Generator: visioncortex VTracer 0.6.5 -->
<svg version="1.1" xmlns="http://www.w3.org/2000/svg" width="640" height="640">
<path d="M0 0 C3.88 0.81 3.88 0.81 5.91 2.75 C8.99 7.55 10.39 12.82 12.05 18.24 C15.44 28.63 21.69 36.67 31.46 41.71 C34.23 43.1 37.01 44.46 39.8 45.81 C54.6 53.02 66.98 61.31 73.2 77.18 C74.16 80.05 75.06 82.91 75.88 85.81 C78.82 85.81 79.81 84.24 82 82.31 C97.18 69.97 115.1 65.27 134.5 65.94 C145.7 66 156.74 61.64 164.85 53.94 C167.68 51.09 170.48 48.22 173.18 45.24 C176.33 41.86 178.12 40.03 182.65 38.73 C186.87 38.84 188.71 40.09 191.88 42.81 C197.25 50.7 193.92 65.42 192.31 74.19 C186.67 102.49 173.01 127.44 149.03 144.09 C133.29 154.57 116.19 161.33 97.31 163.39 C94.88 163.81 94.88 163.81 91.88 165.81 C91.63 167.7 91.63 167.7 91.79 170.06 C91.81 170.51 91.81 170.51 91.92 172.79 C91.97 173.79 92.01 174.79 92.06 175.81 C93.62 243.98 59.74 313.5 14.88 362.81 C10.25 367.95 5.96 373.23 1.88 378.81 C7.19 381.58 12.41 383.8 18.06 385.75 C26.29 388.7 34.35 392.02 42.35 395.52 C43.65 396.09 44.95 396.65 46.26 397.2 C48.12 397.99 49.96 398.81 51.81 399.63 C52.88 400.1 53.95 400.57 55.06 401.05 C58.47 403.18 59.96 405.3 61.88 408.81 C62.53 414.05 61.77 417.42 58.88 421.81 C51.26 430.95 37.99 431.52 26.88 432.81 C21.71 433.1 16.55 433.15 11.38 433.12 C10.68 433.12 9.98 433.12 9.27 433.12 C-8.04 433.05 -26.71 432.01 -42.69 424.63 C-45.76 423.6 -47.08 423.71 -50.12 424.81 C-52.33 426.4 -54.37 428 -56.44 429.75 C-63.92 435.84 -71.8 440.95 -80.12 445.81 C-80.73 446.17 -81.33 446.53 -81.96 446.89 C-128.52 474.1 -193.07 478.99 -245.12 467.81 C-245.58 467.72 -245.58 467.72 -247.88 467.23 C-253.69 465.96 -259.42 464.48 -265.12 462.81 C-265.5 462.7 -265.5 462.7 -267.4 462.15 C-302.24 451.75 -334.22 432.41 -360.9 407.86 C-362.94 405.98 -365.02 404.17 -367.12 402.38 C-374.73 395.72 -381.56 388.54 -387.85 380.64 C-389.37 378.75 -390.93 376.88 -392.52 375.05 C-429.03 332.9 -446.63 274.95 -446.5 219.88 C-446.5 219.4 -446.5 219.4 -446.5 217.01 C-446.45 201.94 -445.72 187.51 -442.12 172.81 C-441.88 171.8 -441.63 170.79 -441.38 169.75 C-437.94 156.16 -433.35 143.37 -427.12 130.81 C-426.78 130.11 -426.44 129.4 -426.09 128.67 C-405.49 86.46 -369.71 53.8 -325.25 38.41 C-319.74 36.62 -314.16 35.25 -308.5 34 C-308.06 33.9 -308.06 33.9 -305.83 33.41 C-290.43 30.23 -275.18 29.44 -259.5 29.5 C-258.58 29.5 -257.66 29.5 -256.72 29.5 C-245 29.51 -233.53 29.8 -221.96 31.83 C-212.96 33.41 -205.56 31.95 -197.06 28.79 C-196.64 28.64 -196.64 28.64 -194.52 27.88 C-191.87 26.93 -189.21 25.97 -186.56 25 C-132.3 5.25 -132.3 5.25 -110.12 13.81 C-104.68 16.73 -104.68 16.73 -103.06 19.88 C-103.12 21.81 -103.12 21.81 -104.12 23.31 C-106.12 24.81 -106.12 24.81 -109.38 26.62 C-118.02 31.52 -122.72 37.33 -126.12 46.81 C-127.7 54.44 -125.22 60.4 -121.12 66.81 C-118.12 71.13 -114.59 73.74 -110.19 76.5 C-100.02 83.09 -90.55 90.27 -81.64 98.51 C-80.28 99.75 -78.92 100.98 -77.52 102.17 C-71.88 106.98 -66.67 112.19 -61.48 117.48 C-59.89 119.09 -58.3 120.7 -56.71 122.3 C-52.19 126.86 -47.68 131.42 -43.18 136 C-18.88 160.73 -18.88 160.73 -6.12 168.81 C-5.26 169.37 -4.4 169.93 -3.51 170.51 C-1.4 171.83 0.72 173.09 2.88 174.31 C3.56 174.71 4.24 175.12 4.95 175.53 C16.18 182.03 16.18 182.03 22.88 181.81 C24.21 178.07 25.53 174.31 26.83 170.55 C27.27 169.27 27.72 168 28.18 166.73 C28.84 164.89 29.47 163.05 30.1 161.21 C30.49 160.1 30.88 159 31.28 157.86 C31.97 154.33 31.64 152.9 29.88 149.81 C27.8 148.01 25.78 146.41 23.56 144.81 C0.23 127.21 -15.37 103.05 -19.62 73.79 C-22.39 50.17 -20.47 24.39 -7.25 3.88 C-5.04 1.21 -3.48 0.27 0 0 Z M-401.12 175.81 C-403.67 179.22 -403.47 183.03 -403.44 187.12 C-403.43 187.86 -403.43 188.6 -403.42 189.36 C-402.93 213.99 -397.13 238.62 -389.12 261.81 C-388.91 262.46 -388.69 263.11 -388.47 263.78 C-370.15 318.25 -331.22 368.05 -280.06 395.19 C-267.16 401.36 -251.33 405.34 -237.1 402.13 C-231.63 400.15 -228.02 397.91 -225.12 392.81 C-225.38 387.28 -227.04 383.72 -229.94 379.06 C-235.47 369.82 -240.78 359.4 -238.38 348.38 C-237.12 345.81 -237.12 345.81 -234.12 343.81 C-227.02 343.05 -221.61 345.02 -215.12 347.81 C-214.14 348.23 -213.16 348.65 -212.15 349.07 C-189.69 359.47 -169.23 375.85 -149.81 391.06 C-126.78 409.07 -105.27 418.04 -75.94 417.94 C-74.78 417.94 -73.61 417.95 -72.42 417.95 C-71.3 417.95 -70.17 417.95 -69.02 417.95 C-68.01 417.94 -67 417.94 -65.95 417.94 C-63.24 417.82 -60.77 417.42 -58.12 416.81 C-58.78 416.29 -59.44 415.76 -60.12 415.22 C-80.59 398.8 -101.02 381.69 -117.12 360.81 C-118.18 359.49 -119.23 358.16 -120.29 356.84 C-132.45 341.5 -143.45 325.41 -154.27 309.11 C-166.57 290.58 -179.29 272.41 -194.12 255.81 C-195.01 254.8 -195.9 253.79 -196.79 252.78 C-208.07 240.15 -220.53 228.89 -234.12 218.81 C-234.45 218.57 -234.45 218.57 -236.1 217.34 C-246.62 209.53 -257.48 202.81 -269.12 196.81 C-269.55 196.59 -269.55 196.59 -271.73 195.46 C-293.32 184.31 -315.92 176.73 -339.8 172.25 C-341.72 171.89 -343.64 171.48 -345.56 171.07 C-360.93 168.09 -387.77 165.84 -401.12 175.81 Z M-112.69 195.75 C-114.12 198.81 -114.12 198.81 -114.25 201.44 C-112.6 204.92 -110.65 206.48 -107.12 207.81 C-103.61 208.41 -100.08 208.83 -96.54 209.27 C-90.49 210.23 -86.2 212.29 -82.19 216.94 C-79.23 221.05 -79.03 222.79 -79.17 227.82 C-79.19 229.03 -79.21 230.25 -79.23 231.5 C-79.29 234.06 -79.35 236.61 -79.43 239.17 C-79.57 249.09 -78.12 256.44 -71.12 263.81 C-62.63 270.92 -54.48 276.09 -43.12 275.81 C-35.91 274.69 -29.4 272.53 -23.12 268.81 C-20.63 265.06 -21 263.5 -21.59 259.21 C-22.45 255.36 -24.08 252.17 -26 248.75 C-26.4 248.02 -26.8 247.3 -27.21 246.55 C-38.59 226.22 -54.66 203.34 -76.12 192.81 C-76.96 192.4 -77.8 191.99 -78.66 191.57 C-90 186.73 -104.11 185.91 -112.69 195.75 Z M-108.62 223.88 C-110.59 227.73 -110.34 229.7 -109.12 233.81 C-107.5 235.81 -107.5 235.81 -105.12 236.81 C-101.7 236.69 -99.17 236.42 -96.19 234.69 C-94.45 231.63 -94.7 229.24 -95.12 225.81 C-96.69 223.38 -96.69 223.38 -99.12 221.81 C-103.4 221.13 -105.25 221.09 -108.62 223.88 Z " fill="#4C6AFE" transform="translate(446.125,79.1875)"/>
</svg>
