<?xml version="1.0" encoding="UTF-8"?>
<!-- Generator: visioncortex VTracer 0.6.5 -->
<svg version="1.1" xmlns="http://www.w3.org/2000/svg" width="1046" height="1029">
<path d="M0 0 C1.35 -0.01 2.69 -0.01 4.04 -0.02 C8.32 -0.04 12.61 -0.05 16.89 -0.05 C17.62 -0.05 18.35 -0.05 19.1 -0.05 C40.73 -0.05 62.12 0.12 83.57 3.2 C85.05 3.41 86.52 3.62 88 3.82 C155.63 13.4 220.67 35.48 279.57 70.2 C280.38 70.68 281.18 71.15 282.01 71.64 C299.64 82.04 316.36 93.72 332.57 106.2 C332.89 106.44 332.89 106.44 334.46 107.65 C342.13 113.54 349.45 119.66 356.57 126.2 C357.9 127.37 359.24 128.54 360.57 129.7 C368.9 136.97 376.97 144.44 384.77 152.27 C386.27 153.77 387.77 155.27 389.27 156.76 C394.58 162.07 399.72 167.47 404.57 173.2 C405.55 174.32 406.52 175.44 407.5 176.55 C414.45 184.58 421.14 192.76 427.57 201.2 C428.1 201.89 428.63 202.59 429.17 203.3 C484.3 275.84 518.99 362.43 529.89 452.83 C529.93 453.17 529.93 453.17 530.13 454.87 C541.36 549.4 525.29 644.84 462.57 776.2 C462.34 776.61 462.34 776.61 461.14 778.64 C450.73 796.27 439.05 812.99 426.57 829.2 C426.1 829.83 425.62 830.45 425.13 831.09 C419.24 838.76 413.12 846.08 406.57 853.2 C405.4 854.53 404.24 855.87 403.07 857.2 C395.8 865.53 388.34 873.6 380.51 881.4 C379.01 882.9 377.51 884.4 376.01 885.9 C370.71 891.21 365.3 896.34 359.57 901.2 C358.46 902.18 357.34 903.15 356.22 904.12 C348.2 911.08 340.02 917.77 331.57 924.2 C330.88 924.73 330.19 925.26 329.48 925.8 C256.94 980.93 170.34 1015.62 79.95 1026.52 C79.27 1026.6 78.6 1026.68 77.9 1026.76 C63.99 1028.41 50.16 1029.36 36.15 1029.41 C34.8 1029.41 33.45 1029.42 32.11 1029.43 C27.82 1029.45 23.54 1029.45 19.26 1029.45 C18.53 1029.45 17.8 1029.45 17.05 1029.45 C-4.58 1029.46 -25.97 1029.29 -47.43 1026.2 C-48.9 1026 -50.38 1025.79 -51.85 1025.58 C-119.48 1016 -184.52 993.92 -243.43 959.2 C-243.83 958.97 -243.83 958.97 -245.87 957.77 C-267.16 945.2 -287.27 930.82 -306.43 915.2 C-307.29 914.51 -308.16 913.82 -309.05 913.1 C-315.05 908.27 -320.77 903.22 -326.41 897.98 C-328.57 895.96 -330.79 894.03 -333.04 892.11 C-338.22 887.6 -343.05 882.73 -347.9 877.86 C-349.49 876.27 -351.08 874.68 -352.67 873.1 C-358.13 867.64 -363.44 862.1 -368.43 856.2 C-369.4 855.08 -370.37 853.97 -371.35 852.85 C-378.3 844.83 -384.99 836.65 -391.43 828.2 C-391.95 827.51 -392.48 826.82 -393.03 826.11 C-448.16 753.57 -482.84 666.97 -493.74 576.58 C-493.82 575.9 -493.9 575.23 -493.98 574.53 C-495.64 560.62 -496.58 546.79 -496.63 532.78 C-496.64 531.43 -496.64 530.08 -496.65 528.74 C-496.67 524.45 -496.67 520.17 -496.68 515.89 C-496.68 515.16 -496.68 514.43 -496.68 513.68 C-496.68 492.05 -496.51 470.66 -493.43 449.2 C-493.22 447.73 -493.01 446.25 -492.81 444.78 C-483.23 377.15 -461.14 312.11 -426.43 253.2 C-425.95 252.4 -425.48 251.59 -424.99 250.76 C-412.42 229.47 -398.05 209.36 -382.43 190.2 C-381.73 189.34 -381.04 188.47 -380.32 187.57 C-375.49 181.57 -370.45 175.86 -365.2 170.22 C-363.19 168.06 -361.26 165.84 -359.34 163.59 C-354.82 158.41 -349.95 153.58 -345.08 148.73 C-343.49 147.14 -341.9 145.55 -340.32 143.96 C-334.86 138.5 -329.32 133.19 -323.43 128.2 C-322.31 127.23 -321.19 126.26 -320.07 125.28 C-312.05 118.33 -303.87 111.64 -295.43 105.2 C-295.08 104.94 -295.08 104.94 -293.33 103.6 C-220.79 48.47 -134.2 13.79 -43.8 2.89 C-43.13 2.81 -42.45 2.73 -41.75 2.64 C-27.84 0.99 -14.01 0.05 0 0 Z M-238.49 265.08 C-239.42 265.99 -240.35 266.91 -241.3 267.86 C-247.45 273.99 -253.02 280.41 -258.43 287.2 C-259.38 288.34 -260.33 289.48 -261.3 290.61 C-320.93 361.88 -346.7 457.27 -338.83 549 C-330.99 633.89 -291.42 711.36 -231.55 771.27 C-230.63 772.19 -229.72 773.12 -228.77 774.08 C-222.64 780.23 -216.22 785.8 -209.43 791.2 C-208.29 792.16 -207.15 793.11 -206.02 794.07 C-134.74 853.71 -39.36 879.48 52.37 871.61 C137.26 863.77 214.73 824.19 274.64 764.33 C275.57 763.41 276.49 762.5 277.45 761.55 C283.6 755.41 289.17 749 294.57 742.2 C295.53 741.06 296.48 739.93 297.45 738.8 C357.08 667.52 382.85 572.14 374.98 480.41 C367.14 395.52 327.56 318.05 267.7 258.14 C266.78 257.21 265.87 256.28 264.92 255.33 C258.78 249.18 252.37 243.61 245.57 238.2 C244.44 237.25 243.3 236.29 242.17 235.33 C168.37 173.59 66.23 146.3 -238.49 265.08 Z " fill="#62A2E6" transform="translate(496.42578125,-0.203125)"/>
</svg>
