<?xml version="1.0" encoding="UTF-8"?>
<!-- Generator: visioncortex VTracer 0.6.5 -->
<svg version="1.1" xmlns="http://www.w3.org/2000/svg" width="1280" height="903">
<path d="M0 0 C60.39 0 120.78 0 183 0 C183 59.07 183 118.14 183 179 C242.73 179 302.46 179 364 179 C364 238.4 364 297.8 364 359 C423.73 359 483.46 359 545 359 C545 299.6 545 240.2 545 179 C604.73 179 664.46 179 726 179 C726 119.93 726 60.86 726 0 C786.39 0 846.78 0 909 0 C909 237.27 909 474.54 909 719 C968.73 719 1028.46 719 1090 719 C1090 778.73 1090 838.46 1090 900 C910.15 900 730.3 900 545 900 C545 840.6 545 781.2 545 720 C485.27 720 425.54 720 364 720 C364 779.4 364 838.8 364 900 C184.15 900 4.3 900 -181 900 C-181 840.27 -181 780.54 -181 719 C-121.27 719 -61.54 719 0 719 C0 481.73 0 244.46 0 0 Z M183 540 C183 599.07 183 658.14 183 719 C242.4 719 301.8 719 363 719 C363 659.93 363 600.86 363 540 C303.6 540 244.2 540 183 540 Z M546 540 C546 599.07 546 658.14 546 719 C605.4 719 664.8 719 726 719 C726 659.93 726 600.86 726 540 C666.6 540 607.2 540 546 540 Z " fill="#FE8204" transform="translate(181,0)"/>
<path d="M0 0 C179.85 0 359.7 0 545 0 C545 59.73 545 119.46 545 181 C365.15 181 185.3 181 0 181 C0 121.27 0 61.54 0 0 Z " fill="#E10500" transform="translate(726,719)"/>
<path d="M0 0 C179.85 0 359.7 0 545 0 C545 59.73 545 119.46 545 181 C365.15 181 185.3 181 0 181 C0 121.27 0 61.54 0 0 Z " fill="#E10500" transform="translate(0,719)"/>
<path d="M0 0 C60.39 0 120.78 0 183 0 C183 59.07 183 118.14 183 179 C242.73 179 302.46 179 364 179 C364 238.4 364 297.8 364 359 C243.88 359 123.76 359 0 359 C0 240.53 0 122.06 0 0 Z " fill="#FFAF00" transform="translate(181,0)"/>
<path d="M0 0 C60.39 0 120.78 0 183 0 C183 118.47 183 236.94 183 359 C62.88 359 -57.24 359 -181 359 C-181 299.6 -181 240.2 -181 179 C-121.27 179 -61.54 179 0 179 C0 119.93 0 60.86 0 0 Z " fill="#FFAE00" transform="translate(907,0)"/>
<path d="M0 0 C23.71 -0.02 47.43 -0.04 71.14 -0.05 C82.15 -0.06 93.16 -0.06 104.17 -0.08 C113.76 -0.09 123.35 -0.09 132.94 -0.09 C138.02 -0.1 143.11 -0.1 148.19 -0.11 C152.97 -0.11 157.74 -0.11 162.52 -0.11 C164.28 -0.11 166.04 -0.12 167.8 -0.12 C170.19 -0.12 172.58 -0.12 174.97 -0.12 C175.68 -0.12 176.38 -0.13 177.11 -0.13 C181.89 -0.11 181.89 -0.11 183 1 C183.1 3.3 183.13 5.61 183.13 7.91 C183.13 8.64 183.13 9.37 183.13 10.12 C183.14 12.59 183.13 15.06 183.13 17.53 C183.13 19.29 183.13 21.05 183.13 22.82 C183.14 27.61 183.14 32.41 183.13 37.21 C183.13 42.22 183.13 47.24 183.14 52.25 C183.14 60.66 183.14 69.08 183.13 77.5 C183.12 87.24 183.13 96.99 183.13 106.74 C183.14 115.09 183.14 123.44 183.13 131.79 C183.13 136.78 183.13 141.78 183.14 146.77 C183.14 151.47 183.14 156.16 183.13 160.86 C183.13 162.59 183.13 164.32 183.13 166.04 C183.14 168.39 183.13 170.74 183.13 173.09 C183.13 173.75 183.13 173.75 183.13 177.08 C183 180 183 180 182 181 C179.66 181.1 177.35 181.13 175.02 181.13 C174.28 181.13 173.54 181.13 172.77 181.13 C170.28 181.14 167.78 181.13 165.29 181.13 C163.51 181.13 161.72 181.13 159.94 181.13 C155.09 181.14 150.24 181.14 145.38 181.13 C140.32 181.13 135.25 181.13 130.18 181.14 C121.67 181.14 113.16 181.14 104.65 181.13 C94.79 181.12 84.94 181.13 75.08 181.13 C66.64 181.14 58.19 181.14 49.75 181.13 C44.7 181.13 39.65 181.13 34.6 181.14 C29.85 181.14 25.1 181.14 20.35 181.13 C18.61 181.13 16.86 181.13 15.11 181.13 C12.74 181.14 10.36 181.13 7.98 181.13 C7.28 181.13 6.58 181.13 5.86 181.13 C1.11 181.11 1.11 181.11 0 180 C-0.1 177.67 -0.13 175.37 -0.12 173.05 C-0.12 172.31 -0.12 171.57 -0.12 170.82 C-0.12 168.33 -0.12 165.85 -0.11 163.36 C-0.11 161.59 -0.11 159.82 -0.11 158.04 C-0.11 153.21 -0.11 148.38 -0.1 143.55 C-0.1 138.51 -0.09 133.47 -0.09 128.42 C-0.09 118.87 -0.08 109.31 -0.07 99.76 C-0.06 88.88 -0.06 78.01 -0.05 67.13 C-0.04 44.76 -0.02 22.38 0 0 Z " fill="#FA500E" transform="translate(544,539)"/>
<path d="M0 0 C60.39 0 120.78 0 183 0 C183 59.4 183 118.8 183 180 C122.61 180 62.22 180 0 180 C0 120.6 0 61.2 0 0 Z " fill="#FFD700" transform="translate(907,0)"/>
<path d="M0 0 C0.35 0 0.35 0 2.14 0.01 C2.88 0.01 3.63 0.01 4.39 0.01 C6.9 0 9.42 0.01 11.93 0.02 C13.72 0.02 15.51 0.02 17.31 0.02 C22.19 0.01 27.08 0.02 31.96 0.03 C37.06 0.03 42.16 0.03 47.25 0.04 C56.92 0.04 66.58 0.05 76.24 0.06 C89.29 0.07 102.34 0.08 115.39 0.08 C135.96 0.09 156.54 0.11 177.11 0.13 C177.11 59.53 177.11 118.93 177.11 180.13 C116.72 180.13 56.33 180.13 -5.89 180.13 C-5.91 150.61 -5.93 121.1 -5.96 90.69 C-5.96 81.36 -5.97 72.02 -5.98 62.4 C-5.99 51.04 -5.99 51.04 -5.99 45.73 C-5.99 42.01 -5.99 38.28 -6 34.56 C-6 29.81 -6.01 25.07 -6.01 20.33 C-6.01 18.58 -6.01 16.83 -6.01 15.09 C-6.02 12.74 -6.02 10.39 -6.01 8.04 C-6.01 6.73 -6.01 5.41 -6.02 4.05 C-5.82 -0.7 -4.32 0.01 0 0 Z " fill="#F9500E" transform="translate(912.892588198185,538.8709186911583)"/>
<path d="M0 0 C45.6 -0.04 45.6 -0.04 64.65 -0.05 C77.82 -0.05 90.99 -0.06 104.17 -0.08 C113.76 -0.09 123.35 -0.09 132.94 -0.09 C138.02 -0.1 143.11 -0.1 148.19 -0.11 C152.97 -0.11 157.74 -0.11 162.52 -0.11 C164.28 -0.11 166.04 -0.12 167.8 -0.12 C170.19 -0.12 172.58 -0.12 174.97 -0.12 C175.68 -0.12 176.38 -0.13 177.11 -0.13 C181.89 -0.11 181.89 -0.11 183 1 C183.1 3.3 183.12 5.61 183.12 7.92 C183.12 8.28 183.12 8.28 183.12 10.13 C183.12 12.6 183.12 15.07 183.11 17.55 C183.11 19.34 183.11 21.13 183.11 22.92 C183.11 27.74 183.11 32.56 183.1 37.37 C183.1 41.89 183.1 46.4 183.09 50.91 C183.09 64.13 183.08 77.35 183.06 90.56 C183.04 120.08 183.02 149.59 183 180 C122.61 180 62.22 180 0 180 C0 120.6 0 61.2 0 0 Z " fill="#FA4F0E" transform="translate(181,539)"/>
<path d="M0 0 C60.06 0 120.12 0 182 0 C182 59.4 182 118.8 182 180 C121.94 180 61.88 180 0 180 C0 120.6 0 61.2 0 0 Z " fill="#FFD700" transform="translate(181,0)"/>
</svg>
