<?xml version="1.0" encoding="UTF-8"?>
<!-- Generator: visioncortex VTracer 0.6.5 -->
<svg version="1.1" xmlns="http://www.w3.org/2000/svg" width="280" height="280">
<path d="M0 0 C1.65 0.66 3.3 1.32 5 2 C5 2.66 5 3.32 5 4 C5.52 4.09 6.05 4.18 6.59 4.27 C9.86 5.26 12.64 6.96 15.56 8.69 C16.82 9.42 18.08 10.15 19.34 10.88 C19.96 11.24 20.58 11.6 21.22 11.97 C25.43 14.4 29.72 16.69 34 19 C36.06 20.12 38.13 21.25 40.19 22.38 C41.11 22.88 42.03 23.38 42.98 23.9 C43.65 24.26 44.31 24.63 45 25 C45 25.66 45 26.32 45 27 C45.86 27.26 46.72 27.51 47.61 27.78 C51.11 29.04 54.01 30.63 57.19 32.56 C62.71 35.9 62.71 35.9 66 37 C66 37.66 66 38.32 66 39 C66.91 39.29 67.81 39.58 68.75 39.88 C71.32 40.77 73.61 41.71 76 43 C76 43.66 76 44.32 76 45 C76.56 45.1 77.11 45.21 77.69 45.31 C80.44 46.13 82.59 47.46 85 49 C83 51.13 81.12 52.65 78.56 54.05 C77.9 54.42 77.24 54.78 76.56 55.16 C75.86 55.54 75.16 55.92 74.44 56.31 C72.98 57.12 71.53 57.92 70.07 58.73 C69.37 59.12 68.67 59.51 67.94 59.91 C64.72 61.72 61.57 63.63 58.41 65.54 C54.65 67.82 50.84 70.02 47.04 72.23 C45.12 73.35 43.22 74.46 41.31 75.58 C36.51 78.39 31.69 81.18 26.86 83.93 C26.39 84.2 26.39 84.2 24.06 85.52 C22.23 86.57 20.4 87.61 18.56 88.65 C13.84 91.34 9.2 94.09 4.68 97.11 C3 98 3 98 0 98 C0 89.75 0 81.5 0 73 C-30.78 73.19 -52.01 75.94 -77.45 94.31 C-80 96 -80 96 -82 96 C-82 96.66 -82 97.32 -82 98 C-84.05 99.48 -84.05 99.48 -86.88 101.19 C-91.64 104.12 -96.2 107.22 -100.71 110.52 C-103.07 112.04 -105.37 113.05 -108 114 C-108 114.66 -108 115.32 -108 116 C-108.97 116.45 -109.94 116.91 -110.94 117.38 C-114 119 -114 119 -115 121 C-114.11 121.26 -113.22 121.52 -112.3 121.79 C-109.02 122.99 -106.88 124.32 -104.12 126.44 C-99.53 129.88 -94.87 133.2 -90.12 136.44 C-88.75 137.38 -87.37 138.32 -86 139.26 C-85.33 139.72 -84.66 140.18 -83.96 140.65 C-82.12 141.92 -80.27 143.2 -78.44 144.49 C-58.69 158.34 -42.2 164.33 -18.12 164.69 C-16.55 164.72 -14.98 164.76 -13.4 164.79 C-9.6 164.88 -5.8 164.94 -2 165 C-2 156.75 -2 148.5 -2 140 C2.47 141.49 5.85 142.87 9.88 145.12 C10.84 145.66 11.81 146.2 12.8 146.76 C13.53 147.17 14.25 147.58 15 148 C15 148.66 15 149.32 15 150 C15.89 150.27 16.77 150.54 17.68 150.82 C20.78 151.92 23.26 153.18 26.06 154.88 C31.77 158.28 37.53 161.59 43.31 164.88 C50.24 168.82 57.12 172.83 63.93 176.97 C68.48 179.73 73.11 182.27 77.83 184.71 C79.91 185.95 81.39 187.21 83 189 C79.06 192.36 74.96 194.84 70.44 197.31 C68.99 198.11 67.55 198.92 66.1 199.72 C65.4 200.11 64.69 200.5 63.97 200.9 C61.39 202.34 58.85 203.82 56.31 205.31 C49.89 209.08 43.42 212.75 36.95 216.43 C30.74 219.97 24.59 223.6 18.53 227.41 C15.77 229.11 14.31 230 11 230 C11 230.66 11 231.32 11 232 C9.21 233.01 7.42 234 5.62 235 C4.63 235.56 3.63 236.11 2.6 236.69 C0 238 0 238 -2 238 C-2 230.74 -2 223.48 -2 216 C-4.09 216.02 -6.17 216.05 -8.32 216.07 C-10.39 216.09 -12.46 216.1 -14.53 216.11 C-15.95 216.12 -17.36 216.13 -18.77 216.15 C-28.03 216.26 -36.88 215.76 -46 214 C-46.44 213.92 -46.44 213.92 -48.69 213.5 C-66.27 210.01 -81.86 203.61 -97 194 C-97.55 193.65 -98.1 193.31 -98.67 192.95 C-106.01 188.3 -106.01 188.3 -109 186 C-109 185.34 -109 184.68 -109 184 C-109.74 183.71 -110.48 183.42 -111.25 183.12 C-113.57 182.18 -115.78 181.15 -118 180 C-118 179.34 -118 178.68 -118 178 C-118.53 177.76 -119.05 177.51 -119.6 177.26 C-122.67 175.65 -125.54 173.77 -128.44 171.88 C-133.23 168.77 -138.03 165.7 -142.88 162.69 C-143.86 162.07 -144.85 161.46 -145.87 160.82 C-161.37 151.79 -177.13 148.4 -195 145 C-195 128.17 -195 111.34 -195 94 C-188.4 92.68 -181.8 91.36 -175 90 C-159.45 85.3 -146.04 78.78 -132.38 70.06 C-129 68 -129 68 -127 68 C-127 67.34 -127 66.68 -127 66 C-124.98 64.55 -124.98 64.55 -122.19 62.88 C-116.98 59.67 -112.09 56.19 -107.21 52.5 C-105 51 -105 51 -103 51 C-103 50.34 -103 49.68 -103 49 C-73.94 27.8 -35.61 17.91 0 23 C0 15.41 0 7.82 0 0 Z " fill="#92A0B5" transform="translate(195,17)"/>
</svg>
