<?xml version="1.0" encoding="UTF-8"?>
<!-- Generator: visioncortex VTracer 0.6.5 -->
<svg version="1.1" xmlns="http://www.w3.org/2000/svg" width="225" height="225">
<path d="M0 0 C74.25 0 148.5 0 225 0 C225 74.25 225 148.5 225 225 C150.75 225 76.5 225 0 225 C0 150.75 0 76.5 0 0 Z " fill="#020202" transform="translate(0,0)"/>
<path d="M0 0 C39.6 0 79.2 0 120 0 C120 74.25 120 148.5 120 225 C89.31 225 58.62 225 27 225 C30.71 223.14 34.1 222.05 38.06 220.88 C50.7 216.83 61.17 208.33 67.86 196.8 C69.82 192.93 71.63 189.12 73 185 C75.32 184.13 77.56 183.41 79.94 182.75 C86.07 180.89 90.84 178.53 95.95 174.55 C98 173 98 173 100.14 172.04 C102.51 170.71 102.92 169.45 104 167 C104.92 165.8 105.85 164.61 106.81 163.44 C116.72 150.4 118.56 134.89 117 119 C115.45 110.56 111.37 103.33 106.45 96.4 C104.47 93.12 103.77 90.55 104.34 86.75 C104.54 85.98 104.73 85.22 104.94 84.44 C107.84 70.73 105.08 57.77 98.25 45.62 C90.12 33.31 79.32 24.19 65 20 C58.19 18.66 51.46 19.05 44.56 19.39 C37.69 19.55 37.69 19.55 34.07 16.67 C33.73 16.23 33.73 16.23 32 14 C22.84 5.8 12.04 2.43 0 1 C0 0.67 0 0.34 0 0 Z " fill="#FDFDFD" transform="translate(105,0)"/>
<path d="M0 0 C30.69 0 61.38 0 93 0 C89.53 1.74 86.65 2.69 82.94 3.69 C68.08 8.21 57.89 17.83 50.41 31.2 C49 34 49 34 48.23 36.69 C46.36 40.19 43.89 40.52 40.19 41.75 C25.29 47.18 14.58 56.18 7.62 70.62 C1.64 83.89 0.72 99.14 5.06 113.06 C7.23 118.77 10.03 123.75 13.55 128.73 C15.56 131.87 16.17 133.78 15.66 137.48 C15.46 138.37 15.27 139.27 15.06 140.19 C12.45 153.9 14.96 168.47 22.25 180.51 C31.04 192.99 42.96 202.56 58.2 205.65 C63.95 206.18 69.68 205.9 75.44 205.61 C82.31 205.45 82.31 205.45 85.92 208.33 C86.61 209.21 87.29 210.09 88 211 C96.4 218.37 106 222.4 117 224 C117 224.33 117 224.66 117 225 C78.39 225 39.78 225 0 225 C0 150.75 0 76.5 0 0 Z " fill="#FDFDFD" transform="translate(0,0)"/>
<path d="M0 0 C2.51 1.42 4.99 2.88 7.45 4.39 C6.16 8.25 4.86 8.58 1.36 10.54 C0.29 11.15 -0.77 11.75 -1.88 12.38 C-3.03 13.02 -4.18 13.66 -5.37 14.32 C-7.14 15.33 -8.91 16.34 -10.68 17.34 C-11.88 18.03 -13.08 18.71 -14.28 19.39 C-19.93 22.59 -25.54 25.87 -31.12 29.2 C-31.96 29.7 -32.8 30.19 -33.67 30.7 C-34.06 30.93 -34.06 30.93 -36 32.09 C-36.66 32.49 -37.33 32.89 -38.02 33.3 C-39.55 34.39 -39.55 34.39 -40.55 36.39 C-40.68 38.45 -40.73 40.52 -40.76 42.58 C-40.78 43.88 -40.8 45.18 -40.82 46.52 C-40.84 47.95 -40.85 49.38 -40.87 50.8 C-40.89 52.26 -40.91 53.71 -40.93 55.16 C-40.99 58.99 -41.04 62.83 -41.09 66.66 C-41.14 70.56 -41.19 74.47 -41.25 78.38 C-41.36 86.05 -41.46 93.72 -41.55 101.39 C-44.95 100.31 -48.12 99.24 -51.2 97.44 C-51.82 97.09 -52.43 96.73 -53.06 96.37 C-53.68 96 -54.29 95.64 -54.93 95.26 C-55.57 94.89 -56.21 94.52 -56.87 94.13 C-58.44 93.22 -60 92.31 -61.55 91.39 C-61.62 83.87 -61.68 76.35 -61.71 68.83 C-61.73 65.33 -61.75 61.84 -61.78 58.35 C-61.82 54.32 -61.83 50.3 -61.85 46.27 C-61.86 45.03 -61.88 43.79 -61.89 42.52 C-61.9 29.46 -58.4 18.33 -49.74 8.28 C-36.43 -4.28 -16.55 -8.03 0 0 Z " fill="#FAFAFA" transform="translate(119.5546875,18.61328125)"/>
<path d="M0 0 C0.47 0.27 0.47 0.27 2.85 1.64 C4.11 2.37 5.37 3.09 6.62 3.81 C6.93 3.99 6.93 3.99 8.5 4.89 C12.27 7.06 16.08 9.09 20 11 C20.09 18.34 20.16 25.68 20.21 33.01 C20.23 36.42 20.26 39.83 20.3 43.24 C20.35 47.17 20.37 51.11 20.39 55.04 C20.41 56.24 20.43 57.45 20.45 58.68 C20.46 70.9 17.56 81.32 10 91 C9.39 91.83 8.77 92.67 8.14 93.52 C2.3 100.28 -7.04 105.38 -15.97 106.18 C-28.34 106.94 -38.85 105.68 -49 98 C-47.71 94.14 -46.42 93.81 -42.92 91.85 C-41.85 91.24 -40.78 90.64 -39.68 90.01 C-38.53 89.37 -37.37 88.72 -36.19 88.06 C-34.41 87.06 -32.64 86.05 -30.87 85.04 C-29.67 84.36 -28.47 83.68 -27.27 83 C-21.62 79.8 -16.02 76.52 -10.44 73.19 C-10.02 72.94 -10.02 72.94 -7.88 71.68 C-7.12 71.22 -6.35 70.77 -5.56 70.29 C-4.89 69.9 -4.22 69.5 -3.54 69.09 C-2 68 -2 68 -1 66 C-0.88 63.91 -0.82 61.81 -0.79 59.71 C-0.78 59.07 -0.77 58.43 -0.76 57.76 C-0.73 55.63 -0.71 53.5 -0.68 51.37 C-0.66 49.89 -0.64 48.41 -0.62 46.94 C-0.57 43.05 -0.52 39.16 -0.47 35.27 C-0.42 31.3 -0.36 27.33 -0.31 23.36 C-0.2 15.58 -0.1 7.79 0 0 Z " fill="#FAFAFA" transform="translate(147,104)"/>
<path d="M0 0 C0 0.69 0 1.38 0 2.09 C0.02 9.28 0.08 16.46 0.15 23.65 C0.18 26.33 0.19 29.01 0.2 31.7 C0.2 35.55 0.25 39.41 0.29 43.26 C0.29 44.46 0.29 45.66 0.28 46.9 C0.43 55.22 0.43 55.22 3.32 59.16 C4.2 59.77 5.09 60.37 6 61 C6.61 61.42 7.21 61.83 7.84 62.26 C8.41 62.57 8.99 62.87 9.58 63.18 C10.25 63.55 10.93 63.91 11.62 64.28 C12.34 64.66 13.07 65.05 13.81 65.44 C15.41 66.3 17.01 67.17 18.61 68.04 C19.47 68.51 20.33 68.98 21.22 69.46 C26.36 72.31 31.43 75.28 36.5 78.25 C36.99 78.54 36.99 78.54 39.5 80 C45.69 83.63 51.86 87.3 58 91 C54.9 94.26 51.43 96.46 47.62 98.81 C46.97 99.24 46.31 99.68 45.62 100.12 C44.98 100.52 44.33 100.92 43.66 101.33 C43.08 101.7 42.5 102.07 41.9 102.45 C38.25 103.51 35.31 101.16 32.13 99.46 C31.09 98.87 30.05 98.27 28.98 97.66 C28.42 97.33 27.85 97.01 27.26 96.67 C25.42 95.62 23.59 94.56 21.75 93.5 C20.48 92.77 19.22 92.04 17.95 91.31 C15.44 89.87 12.94 88.43 10.44 86.98 C7.52 85.3 4.59 83.63 1.66 81.96 C-12.7 73.78 -22.73 65.91 -27.3 49.39 C-29.58 38.28 -28.05 28.15 -22.46 18.27 C-18.1 11.68 -8.99 0 0 0 Z " fill="#FBFBFB" transform="translate(44,55)"/>
<path d="M0 0 C1.04 0.6 2.08 1.19 3.15 1.81 C3.72 2.13 4.29 2.46 4.87 2.79 C6.71 3.85 8.55 4.9 10.38 5.96 C11.65 6.69 12.92 7.42 14.18 8.15 C16.69 9.59 19.19 11.04 21.69 12.48 C24.62 14.17 27.54 15.84 30.48 17.5 C44.88 25.71 54.86 33.57 59.44 50.14 C61.72 61.05 59.98 71.48 54.59 81.26 C49.82 88.47 44.44 94.08 36.48 97.56 C35.67 97.92 34.86 98.28 34.02 98.64 C33.39 98.91 32.77 99.18 32.13 99.46 C32.13 98.77 32.13 98.08 32.13 97.37 C32.11 90.18 32.05 83 31.98 75.81 C31.95 73.13 31.94 70.45 31.94 67.77 C31.93 63.91 31.89 60.06 31.84 56.2 C31.84 55 31.85 53.8 31.85 52.57 C31.71 44.27 31.71 44.27 28.92 40.37 C26.24 38.54 23.62 36.81 20.77 35.26 C19.75 34.7 18.72 34.13 17.67 33.55 C16.58 32.97 15.5 32.38 14.38 31.78 C12.12 30.53 9.87 29.29 7.61 28.04 C6.51 27.44 5.4 26.83 4.27 26.2 C0.04 23.85 -4.14 21.43 -8.31 18.96 C-8.64 18.76 -8.64 18.76 -10.35 17.75 C-12.19 16.66 -14.03 15.56 -15.87 14.46 C-16.94 13.82 -18.02 13.18 -19.13 12.52 C-21.38 11.17 -23.62 9.82 -25.87 8.46 C-22.77 5.2 -19.3 3.01 -15.49 0.65 C-14.83 0.22 -14.17 -0.21 -13.49 -0.66 C-12.85 -1.06 -12.2 -1.46 -11.53 -1.87 C-10.95 -2.24 -10.37 -2.61 -9.77 -2.99 C-6.11 -4.05 -3.17 -1.7 0 0 Z " fill="#FBFBFB" transform="translate(148.8681640625,70.537109375)"/>
<path d="M0 0 C2.64 18.23 2.64 18.23 -1.25 23.78 C-5.02 26.99 -9.63 28.76 -14.14 30.68 C-19.81 33.29 -25.08 36.63 -30.44 39.81 C-58.97 56.47 -58.97 56.47 -75.64 53.54 C-82.09 51.82 -87.48 48.69 -93 45 C-93.89 44.42 -94.77 43.84 -95.69 43.25 C-103.81 35.34 -108.51 25.64 -109.24 14.28 C-109.25 11.18 -109.18 8.1 -109 5 C-104.28 5.56 -100.78 7.69 -96.81 10.12 C-95.31 11.02 -93.81 11.91 -92.31 12.81 C-89.46 14.52 -86.62 16.23 -83.78 17.96 C-80.9 19.71 -78.01 21.43 -75.11 23.15 C-73.4 24.17 -71.7 25.22 -70 26.26 C-62.18 30.89 -62.18 30.89 -57.46 31.34 C-52.04 29.24 -47.17 26.37 -42.19 23.38 C-40.47 22.36 -38.75 21.35 -37.03 20.34 C-35.24 19.29 -33.45 18.23 -31.66 17.17 C-26.2 13.93 -20.72 10.74 -15.23 7.57 C-13.52 6.57 -11.81 5.57 -10.1 4.57 C-9.07 3.97 -8.03 3.37 -6.97 2.75 C-6.51 2.49 -6.51 2.49 -4.2 1.14 C-2 0 -2 0 0 0 Z " fill="#FBFBFB" transform="translate(137,139)"/>
<path d="M0 0 C8.71 7.12 15.06 15.31 16.99 26.63 C17.22 31.31 17.17 35.95 16.99 40.63 C12.23 40.07 8.68 37.9 4.68 35.44 C3.18 34.54 1.67 33.64 0.17 32.75 C-2.57 31.1 -5.3 29.45 -8.03 27.8 C-11.23 25.88 -14.43 23.97 -17.63 22.07 C-18.65 21.45 -19.67 20.83 -20.72 20.19 C-21.69 19.61 -22.67 19.03 -23.67 18.44 C-24.53 17.92 -25.39 17.4 -26.28 16.87 C-29.64 15.34 -32.32 14.78 -36.01 14.63 C-38.96 15.75 -38.96 15.75 -41.9 17.5 C-43.01 18.15 -44.12 18.8 -45.26 19.47 C-46.45 20.19 -47.63 20.91 -48.82 21.63 C-50.05 22.36 -51.28 23.08 -52.51 23.8 C-55.06 25.3 -57.61 26.81 -60.15 28.33 C-65.71 31.65 -71.31 34.89 -76.91 38.13 C-78.61 39.12 -80.31 40.11 -82.01 41.11 C-83.03 41.7 -84.05 42.3 -85.11 42.91 C-86.01 43.44 -86.91 43.96 -87.84 44.51 C-90.01 45.63 -90.01 45.63 -92.01 45.63 C-94.65 27.4 -94.65 27.4 -90.76 21.85 C-86.99 18.64 -82.38 16.87 -77.86 14.94 C-72.2 12.34 -66.93 9 -61.57 5.82 C-41.19 -6.08 -21.8 -15.93 0 0 Z " fill="#FBFBFB" transform="translate(180.0078125,40.37109375)"/>
<path d="M0 0 C1.37 0.8 2.75 1.58 4.14 2.34 C5.32 3.01 6.5 3.69 7.69 4.38 C8.31 4.73 8.92 5.08 9.56 5.45 C11.04 6.3 12.52 7.15 14 8 C15.48 17.49 16.87 27.68 14 37 C10.81 41.16 7.22 43.62 2.69 46.19 C1.64 46.79 0.59 47.4 -0.5 48.02 C-4.93 50.15 -8.14 51.56 -12.98 50.1 C-15.81 48.57 -18.38 46.87 -21 45 C-22.37 44.2 -23.75 43.42 -25.14 42.66 C-26.32 41.99 -27.5 41.31 -28.69 40.62 C-29.31 40.27 -29.92 39.92 -30.56 39.55 C-32.04 38.7 -33.52 37.85 -35 37 C-36.48 27.51 -37.87 17.32 -35 8 C-31.81 3.84 -28.22 1.38 -23.69 -1.19 C-22.64 -1.79 -21.59 -2.4 -20.5 -3.02 C-11.82 -7.18 -7.54 -5.39 0 0 Z " fill="#FCFCFC" transform="translate(123,90)"/>
</svg>
