<?xml version="1.0" encoding="UTF-8"?>
<!-- Generator: visioncortex VTracer 0.6.5 -->
<svg version="1.1" xmlns="http://www.w3.org/2000/svg" width="217" height="232">
<path d="M0 0 C71.61 0 143.22 0 217 0 C217 76.56 217 153.12 217 232 C145.39 232 73.78 232 0 232 C0 155.44 0 78.88 0 0 Z " fill="#FEFEFE" transform="translate(0,0)"/>
<path d="M0 0 C33.9 -2.76 33.9 -2.76 40.61 2.89 C43.31 6.13 45.12 9.78 46.85 13.62 C48.88 17.81 51.68 21.47 54.38 25.25 C55.47 26.86 56.56 28.47 57.65 30.08 C61.03 35.07 64.48 40.01 67.94 44.94 C68.23 45.35 68.23 45.35 69.7 47.45 C70.88 49.13 72.06 50.81 73.23 52.48 C76.16 56.65 79.08 60.83 82 65 C83.16 66.66 84.33 68.33 85.49 69.99 C87.85 73.36 90.21 76.73 92.57 80.11 C93.76 81.8 94.94 83.49 96.12 85.19 C96.41 85.6 96.41 85.6 97.87 87.68 C100.71 91.75 103.57 95.81 106.44 99.86 C106.99 100.63 107.54 101.4 108.1 102.2 C109.13 103.64 110.15 105.09 111.18 106.53 C111.64 107.18 112.1 107.83 112.57 108.5 C112.97 109.05 113.37 109.61 113.78 110.19 C115.28 112.41 116.64 114.7 118 117 C86.23 119.5 86.23 119.5 78.39 115.75 C74.63 112.4 72.9 108.05 71.08 103.43 C69.09 98.96 66.07 95.18 63.19 91.25 C61.99 89.55 60.8 87.85 59.61 86.14 C59.01 85.29 58.41 84.44 57.8 83.56 C54.86 79.38 51.93 75.19 49 71 C47.84 69.34 46.67 67.67 45.51 66.01 C43.15 62.64 40.79 59.27 38.43 55.89 C32.97 48.09 27.5 40.28 22 32.5 C20.54 30.43 19.07 28.35 17.61 26.28 C16.46 24.64 15.3 23.01 14.15 21.38 C12.22 18.65 10.3 15.92 8.38 13.19 C7.77 12.33 7.17 11.48 6.54 10.6 C6.26 10.2 6.26 10.2 4.84 8.17 C4.34 7.46 3.84 6.75 3.32 6.02 C2.05 4.07 1 2.11 0 0 Z " fill="#020202" transform="translate(30,85)"/>
<path d="M0 0 C0.33 0 0.66 0 1 0 C1.22 25.18 0.67 50.35 0.2 75.53 C0.08 81.72 -0.03 87.9 -0.14 94.09 C-0.22 98.93 -0.31 103.77 -0.4 108.61 C-0.44 110.89 -0.48 113.17 -0.52 115.45 C-0.78 129.65 -1.26 143.81 -2 158 C-9.92 158 -17.84 158 -26 158 C-26.27 148.37 -26.53 138.75 -26.78 129.12 C-26.9 124.64 -27.02 120.17 -27.15 115.69 C-27.41 106.11 -27.65 96.53 -27.83 86.94 C-27.92 82.48 -28.02 78.02 -28.16 73.56 C-28.29 69.11 -28.39 64.66 -28.46 60.22 C-28.5 58.56 -28.54 56.9 -28.6 55.24 C-29.15 39.82 -24.63 30.99 -14.13 19.43 C-10.74 15.56 -7.94 11.32 -5.06 7.06 C-3.41 4.68 -1.73 2.33 0 0 Z " fill="#020202" transform="translate(186,44)"/>
<path d="M0 0 C1.54 0 3.09 0.03 4.63 0.1 C5.04 0.1 5.04 0.1 7.11 0.12 C9.7 0.15 12.3 0.23 14.9 0.31 C16.66 0.34 18.43 0.36 20.19 0.39 C24.51 0.45 28.83 0.56 33.15 0.68 C29.3 6.84 25.4 12.89 21.02 18.68 C16.8 24.36 12.75 30.14 8.77 35.99 C4.46 42.36 0.05 48.65 -4.48 54.87 C-8.95 61.01 -13.32 67.21 -17.61 73.48 C-21.43 79.07 -25.29 84.63 -29.16 90.18 C-29.74 91.01 -30.31 91.83 -30.91 92.68 C-34.46 97.76 -38.1 102.75 -41.85 107.68 C-45.17 103.6 -48.31 99.42 -51.41 95.18 C-51.89 94.53 -52.38 93.88 -52.87 93.21 C-54.22 91.38 -55.53 89.53 -56.85 87.68 C-57.5 86.8 -58.15 85.93 -58.82 85.02 C-59.85 82.68 -59.85 82.68 -59.41 80.39 C-57.18 76.51 -54.58 72.96 -51.91 69.37 C-50.73 67.75 -49.54 66.13 -48.36 64.51 C-47.77 63.7 -47.17 62.89 -46.56 62.05 C-44.08 58.61 -41.68 55.12 -39.29 51.62 C-35.58 46.19 -31.84 40.8 -28.04 35.43 C-23.46 28.96 -18.9 22.48 -14.35 15.99 C-14.06 15.57 -14.06 15.57 -12.57 13.46 C-12.01 12.66 -11.46 11.86 -10.88 11.04 C-10.39 10.35 -9.9 9.65 -9.4 8.93 C-7.85 6.68 -7.85 6.68 -6.19 3.45 C-3.85 0.68 -3.85 0.68 0 0 Z " fill="#010101" transform="translate(153.8505859375,29.31884765625)"/>
<path d="M0 0 C5.46 1.82 8.1 7.67 11.31 12.25 C12.08 13.3 12.85 14.35 13.63 15.43 C14.35 16.45 15.06 17.47 15.8 18.52 C16.46 19.45 17.12 20.38 17.81 21.34 C19 24 19 24 18.35 26.61 C17.15 28.74 15.94 30.78 14.54 32.78 C14.07 33.46 13.6 34.13 13.11 34.83 C12.62 35.53 12.13 36.22 11.62 36.94 C10.66 38.32 9.69 39.71 8.73 41.09 C8.3 41.7 7.87 42.3 7.43 42.93 C6 45 6 45 4.36 48.21 C2 51 2 51 -1.85 51.68 C-3.4 51.68 -4.94 51.65 -6.48 51.59 C-7.3 51.58 -8.12 51.57 -8.96 51.56 C-11.56 51.53 -14.15 51.45 -16.75 51.38 C-18.51 51.34 -20.28 51.32 -22.04 51.29 C-26.36 51.23 -30.68 51.12 -35 51 C-31.15 44.84 -27.26 38.79 -22.88 33 C-14.88 22.26 -7.4 11.15 0 0 Z " fill="#010101" transform="translate(65,151)"/>
</svg>
